<?xml version="1.0" standalone="no"?>
<svg xmlns="http://www.w3.org/2000/svg" viewBox="0 0 41.464 47.879" width="41.464" height="47.879"><polygon fill="none" stroke="#91a16a" stroke-width="3" points="39.964,12.71975 39.964,35.15925 20.732,46.379 1.5,35.15925 1.5,12.71975 20.732,1.5"></polygon><path fill="#014d5a" fill-rule="nonzero" d="M0.29 16.46L0.29 16.46Q0.65 15.67 1.15 14.42Q1.66 13.18 2.21 11.72Q2.76 10.27 3.34 8.75Q3.91 7.22 4.42 5.86Q4.92 4.49 5.29 3.41Q5.66 2.33 5.83 1.75L5.83 1.75Q4.32 2.38 3.24 3.65Q2.16 4.92 1.61 6.84L1.61 6.84Q1.06 6.65 0.60 6.16Q0.14 5.66 0 4.92L0 4.92Q0.24 3.82 0.90 2.90Q1.56 1.99 2.57 1.34Q3.58 0.70 4.90 0.35Q6.22 0 7.73 0L7.73 0Q9.65 0 11.26 0.56Q12.86 1.13 14.02 2.14Q15.17 3.14 15.82 4.56Q16.46 5.98 16.46 7.70L16.46 7.70Q16.46 10.06 15.60 12.19Q14.74 14.33 13.26 15.96Q11.78 17.59 9.84 18.56Q7.90 19.54 5.76 19.54L5.76 19.54Q3.79 19.54 2.39 18.76Q0.98 17.98 0.29 16.46ZM8.76 1.20L8.76 1.20Q7.56 1.20 6.48 1.54L6.48 1.54Q7.54 1.92 8.23 2.34Q8.93 2.76 9.19 3L9.19 3Q9 3.26 8.63 3.94Q8.26 4.61 7.76 5.57Q7.27 6.53 6.72 7.67Q6.17 8.81 5.64 10.01L5.64 10.01Q4.27 13.06 3.66 14.81Q3.05 16.56 3.05 17.23L3.05 17.23Q3.38 17.35 3.86 17.40Q4.34 17.45 4.90 17.45L4.90 17.45Q6.84 17.45 8.58 16.55Q10.32 15.65 11.63 14.14Q12.94 12.62 13.69 10.62Q14.45 8.62 14.45 6.41L14.45 6.41Q14.45 3.94 12.91 2.57Q11.38 1.20 8.76 1.20Z" transform="translate(12.5, 14.172)"></path></svg>