<?xml version="1.0" standalone="no"?>
<svg xmlns="http://www.w3.org/2000/svg" viewBox="0 0 88 70" width="88" height="70"><g fill="#b31111" color="#b31111" transform="translate(26.118 0) scale(0.7291667) "><svg width="48.0" height="48.0" x="0.0" y="0.0" viewBox="0 0 48 48"><path fill="currentColor" fill-rule="evenodd" d="M28 24a4 4 0 1 1-8 0 4 4 0 0 1 8 0M26 0c12.318 1.024 22 11.367 22 24 0 12.505-9.489 22.772-21.631 23.967l-.37.033v-4.018C36.11 42.974 44 34.412 44 24c0-10.296-7.71-18.782-17.655-19.948L26 4.015V0zm-4 0v4.015C11.894 5.023 4 13.586 4 24c0 10.294 7.716 18.78 17.657 19.945l.343.037V48C9.684 46.979 0 36.631 0 24 0 11.367 9.684 1.024 22 0zm-9.82 26c.953 5.672 5.874 10 11.82 10 5.946 0 10.867-4.328 11.82-10h4.041c-.984 7.89-7.7 14-15.861 14-8.156 0-14.876-6.11-15.861-14zM24 16a8 8 0 0 1 8 8 8 8 0 1 1-8-8zm0-8c8.047 0 14.69 5.941 15.816 13.672l.045.328h-4.04c-.954-5.674-5.875-10-11.82-10-5.844 0-10.698 4.178-11.768 9.708L12.18 22H8.14C9.125 14.11 15.844 8 24 8z"></path></svg></g><line x1="27.1671875" y1="41" x2="60.0671875" y2="41" stroke="#000000" stroke-linecap="round"></line><path fill="#000000" fill-rule="nonzero" d="M0 22.25L0 2.24L3.15 2.24Q3.87 2.24 4.63 2.28Q5.40 2.32 6.13 2.53Q6.87 2.74 7.52 3.18Q8.17 3.62 8.66 4.41Q9.15 5.20 9.44 6.40Q9.73 7.61 9.73 9.34L9.73 9.34L9.73 15.15Q9.73 16.89 9.44 18.09Q9.15 19.30 8.66 20.09Q8.17 20.87 7.52 21.31Q6.87 21.75 6.13 21.96Q5.40 22.17 4.63 22.21Q3.87 22.25 3.15 22.25L3.15 22.25L0 22.25ZM3.04 20.13L3.81 20.13Q4.63 20.13 5.16 19.92Q5.70 19.71 6.01 19.18Q6.32 18.64 6.43 17.72Q6.55 16.80 6.55 15.40L6.55 15.40L6.55 9.19Q6.55 7.78 6.43 6.86Q6.32 5.94 6.01 5.41Q5.70 4.88 5.16 4.66Q4.63 4.45 3.81 4.45L3.81 4.45L3.04 4.45L3.04 20.13ZM16.14 22.43L16.14 22.43Q15.09 22.43 14.29 22.04Q13.49 21.66 12.94 20.84Q12.39 20.02 12.11 18.73Q11.82 17.45 11.82 15.64L11.82 15.64L11.82 12.60Q11.82 11.06 12.05 9.97Q12.28 8.87 12.65 8.13Q13.02 7.38 13.51 6.95Q13.99 6.52 14.51 6.29Q15.02 6.06 15.53 5.99Q16.04 5.93 16.48 5.93L16.48 5.93Q17.27 5.93 18.01 6.17Q18.75 6.41 19.31 6.99Q19.88 7.57 20.21 8.54Q20.54 9.52 20.54 10.97L20.54 10.97Q20.54 11.46 20.51 11.96Q20.48 12.47 20.44 12.96Q20.39 13.44 20.31 13.90Q20.24 14.36 20.16 14.74L20.16 14.74L14.80 14.74L14.80 16.38Q14.80 17.44 14.88 18.16Q14.96 18.88 15.16 19.32Q15.35 19.76 15.69 19.95Q16.02 20.14 16.52 20.14L16.52 20.14Q16.79 20.14 17.05 20.03Q17.31 19.92 17.50 19.66Q17.70 19.41 17.81 18.98Q17.93 18.55 17.93 17.92L17.93 17.92L17.93 17.41L20.40 17.41L20.40 18.04Q20.40 20.33 19.31 21.38Q18.21 22.43 16.14 22.43ZM14.80 12.75L17.78 12.75Q17.79 12.62 17.80 12.40Q17.81 12.19 17.82 11.95Q17.82 11.72 17.82 11.49Q17.82 11.26 17.82 11.10L17.82 11.10Q17.82 9.50 17.45 8.80Q17.07 8.10 16.34 8.10L16.34 8.10Q15.95 8.10 15.66 8.28Q15.36 8.46 15.18 8.89Q14.99 9.32 14.89 10.02Q14.80 10.72 14.80 11.77L14.80 11.77L14.80 12.75ZM25.35 22.25L21.71 6.12L24.67 6.12L26.23 14.70L26.61 18.13L26.71 18.13L27.15 14.70L28.70 6.12L31.56 6.12L27.88 22.25L25.35 22.25ZM34.48 8.43L34.18 0.27L37.10 0.27L36.86 8.43L34.48 8.43ZM42.62 3.81L42.62 3.81Q41.80 3.81 41.33 3.32Q40.85 2.82 40.85 1.88L40.85 1.88Q40.85 1.35 40.97 0.99Q41.10 0.63 41.33 0.42Q41.55 0.20 41.88 0.10Q42.21 0 42.63 0L42.63 0Q43.51 0 43.97 0.45Q44.43 0.89 44.43 1.88L44.43 1.88Q44.43 2.79 43.96 3.30Q43.50 3.81 42.62 3.81ZM41.09 22.25L41.09 6.12L44.05 6.12L44.05 22.25L41.09 22.25ZM47.19 22.25L47.19 0.94L50.16 0.94L50.16 22.25L47.19 22.25ZM54.83 3.81L54.83 3.81Q54.01 3.81 53.54 3.32Q53.06 2.82 53.06 1.88L53.06 1.88Q53.06 1.35 53.19 0.99Q53.31 0.63 53.54 0.42Q53.77 0.20 54.09 0.10Q54.42 0 54.84 0L54.84 0Q55.72 0 56.18 0.45Q56.64 0.89 56.64 1.88L56.64 1.88Q56.64 2.79 56.17 3.30Q55.71 3.81 54.83 3.81ZM53.30 22.25L53.30 6.12L56.26 6.12L56.26 22.25L53.30 22.25ZM58.72 18.88L58.72 18.88Q58.72 18.35 58.82 17.86Q58.92 17.37 59.02 17.07L59.02 17.07L61.10 17.07Q61.10 17.95 61.19 18.54Q61.28 19.14 61.48 19.49Q61.68 19.84 62.01 19.99Q62.34 20.14 62.82 20.14L62.82 20.14Q63.49 20.14 63.80 19.77Q64.10 19.39 64.10 18.90L64.10 18.90Q64.10 18.64 64.03 18.41Q63.96 18.18 63.83 17.94Q63.70 17.70 63.52 17.45Q63.33 17.20 63.09 16.91L63.09 16.91L60.93 14.36Q60.50 13.83 60.11 13.28Q59.72 12.74 59.42 12.16Q59.12 11.58 58.94 10.95Q58.76 10.31 58.76 9.61L58.76 9.61Q58.76 8.67 59.08 7.98Q59.40 7.29 59.95 6.83Q60.49 6.38 61.21 6.15Q61.92 5.93 62.72 5.93L62.72 5.93Q63.60 5.93 64.30 6.14Q65.00 6.35 65.51 6.77Q66.01 7.20 66.28 7.82Q66.55 8.45 66.55 9.28L66.55 9.28Q66.55 9.84 66.45 10.37Q66.35 10.90 66.26 11.27L66.26 11.27L64.21 11.27Q64.20 10.48 64.14 9.88Q64.08 9.28 63.92 8.89Q63.76 8.50 63.49 8.30Q63.21 8.10 62.77 8.10L62.77 8.10Q62.38 8.10 62.12 8.22Q61.86 8.34 61.71 8.54Q61.55 8.74 61.48 8.99Q61.42 9.23 61.42 9.49L61.42 9.49Q61.42 10.05 61.69 10.54Q61.96 11.02 62.40 11.58L62.40 11.58L64.77 14.36Q65.03 14.67 65.37 15.12Q65.71 15.57 66.01 16.12Q66.32 16.66 66.53 17.31Q66.74 17.95 66.74 18.66L66.74 18.66Q66.74 19.51 66.47 20.21Q66.20 20.91 65.67 21.40Q65.14 21.89 64.38 22.16Q63.61 22.43 62.63 22.43L62.63 22.43Q61.82 22.43 61.10 22.25Q60.39 22.07 59.86 21.65Q59.33 21.23 59.03 20.55Q58.72 19.88 58.72 18.88ZM72.96 22.43L72.96 22.43Q71.92 22.43 71.12 22.04Q70.31 21.66 69.76 20.84Q69.21 20.02 68.93 18.73Q68.65 17.45 68.65 15.64L68.65 15.64L68.65 12.60Q68.65 11.06 68.88 9.97Q69.11 8.87 69.47 8.13Q69.84 7.38 70.33 6.95Q70.82 6.52 71.33 6.29Q71.85 6.06 72.36 5.99Q72.87 5.93 73.30 5.93L73.30 5.93Q74.10 5.93 74.84 6.17Q75.57 6.41 76.14 6.99Q76.70 7.57 77.03 8.54Q77.37 9.52 77.37 10.97L77.37 10.97Q77.37 11.46 77.34 11.96Q77.31 12.47 77.26 12.96Q77.21 13.44 77.14 13.90Q77.06 14.36 76.98 14.74L76.98 14.74L71.63 14.74L71.63 16.38Q71.63 17.44 71.71 18.16Q71.79 18.88 71.98 19.32Q72.18 19.76 72.51 19.95Q72.84 20.14 73.35 20.14L73.35 20.14Q73.62 20.14 73.88 20.03Q74.13 19.92 74.33 19.66Q74.52 19.41 74.64 18.98Q74.75 18.55 74.75 17.92L74.75 17.92L74.75 17.41L77.23 17.41L77.23 18.04Q77.23 20.33 76.13 21.38Q75.04 22.43 72.96 22.43ZM71.63 12.75L74.60 12.75Q74.61 12.62 74.63 12.40Q74.64 12.19 74.64 11.95Q74.65 11.72 74.65 11.49Q74.65 11.26 74.65 11.10L74.65 11.10Q74.65 9.50 74.27 8.80Q73.90 8.10 73.16 8.10L73.16 8.10Q72.77 8.10 72.48 8.28Q72.19 8.46 72 8.89Q71.81 9.32 71.72 10.02Q71.63 10.72 71.63 11.77L71.63 11.77L71.63 12.75ZM79.88 22.25L79.88 6.12L82.04 6.12L82.30 7.76Q82.79 6.84 83.43 6.39Q84.07 5.93 84.74 5.93L84.74 5.93Q86.02 5.93 86.63 6.71Q87.23 7.50 87.23 9.07L87.23 9.07Q87.23 9.27 87.21 9.54Q87.18 9.82 87.12 10.12Q87.07 10.42 86.99 10.72Q86.92 11.02 86.84 11.26L86.84 11.26L84.77 11.26L84.77 9.76Q84.77 9.27 84.71 8.95Q84.64 8.64 84.54 8.44Q84.43 8.25 84.29 8.17Q84.15 8.10 83.99 8.10L83.99 8.10Q83.64 8.10 83.34 8.33Q83.04 8.55 82.84 8.96L82.84 8.96L82.84 22.25L79.88 22.25Z" transform="translate(0, 47)"></path></svg>