<?xml version="1.0" standalone="no"?>
<svg xmlns="http://www.w3.org/2000/svg" viewBox="0 0 191.304 33.304" width="191.304" height="33.304"><g fill="#91a16a" color="#91a16a" transform="translate(0, 0) scale(0.29)"><svg width="100.0" height="100.0" x="0.0" y="0.0" viewBox="0 0 100 100"><g><g><path fill="currentColor" d="M19.847,63.395c0.138,0.103,0.28,0.199,0.424,0.293c0.062,0.041,0.127,0.082,0.191,0.121    c0.143,0.09,0.288,0.178,0.437,0.261c0.062,0.033,0.125,0.064,0.189,0.099c0.494,0.255,1.017,0.469,1.572,0.631    c0.069,0.02,0.135,0.045,0.205,0.063c0.001-0.002,0.002-0.004,0.003-0.005c1.792,0.477,3.896,0.422,6.37-0.476    c1.773-0.643,2.754-1.986,3.286-3.444c0.006-0.015,0.01-0.029,0.016-0.044c0.121-0.335,0.219-0.677,0.295-1.018    c0.416,0.066,0.856,0.115,1.346,0.115c0.658,0,1.39-0.083,2.178-0.257c0.105,0.902,0.077,2.593,0.103,4.138    c0.011,0.66,0.606,1.013,1.24,1.022c0.063,0.002,0.124-0.002,0.184-0.012c0.548-0.084,1.036-0.578,1.071-1.173    c0.438-7.402-1.415-8.561-1.719-8.817c-0.304-0.259-0.712-0.365-1.093-0.306c-0.236,0.036-0.462,0.135-0.646,0.3    c-0.48,0.432-0.437,1.114-0.121,1.688c0.075,0.136,0.194,0.302,0.408,0.847c-1.103,0.243-1.946,0.217-2.677,0.097    c0.003-0.193,0.003-0.378,0-0.553c0-0.004,0-0.007,0-0.011c-0.008-0.398-0.031-0.741-0.055-1.005    c-0.002-0.011-0.002-0.018-0.003-0.027c-0.016-0.169-0.031-0.306-0.044-0.399c-0.001-0.006-0.001-0.01-0.002-0.019    c-0.005-0.036-0.009-0.066-0.013-0.088c-0.001-0.009-0.002-0.011-0.002-0.019c-0.002-0.017-0.005-0.029-0.005-0.029    s-0.002-0.014-0.003-0.031c-0.001-0.008-0.001-0.009-0.003-0.018c-0.002-0.028-0.008-0.064-0.018-0.113    c-0.001-0.007-0.002-0.013-0.003-0.018c-0.008-0.047-0.02-0.102-0.034-0.165c-0.002-0.008-0.004-0.017-0.006-0.024    c-0.017-0.067-0.037-0.142-0.061-0.223c-0.005-0.017-0.01-0.032-0.015-0.048c-0.054-0.17-0.127-0.364-0.228-0.572    c-0.009-0.019-0.018-0.036-0.027-0.056c-0.052-0.104-0.109-0.209-0.175-0.317c-0.009-0.015-0.02-0.031-0.029-0.046    c-0.064-0.102-0.134-0.204-0.211-0.308c-0.01-0.015-0.019-0.028-0.029-0.041c-0.084-0.109-0.178-0.218-0.278-0.325    c-0.02-0.021-0.041-0.041-0.061-0.063c-0.106-0.109-0.221-0.218-0.348-0.321c-0.003-0.003-0.008-0.006-0.011-0.01    c-0.123-0.1-0.258-0.196-0.401-0.289c-0.029-0.019-0.058-0.038-0.088-0.058c-0.147-0.092-0.305-0.179-0.475-0.26    c-0.031-0.014-0.063-0.028-0.095-0.043c-0.16-0.072-0.33-0.141-0.511-0.202c-0.028-0.011-0.056-0.021-0.085-0.03    c-0.198-0.064-0.411-0.121-0.635-0.17c-0.051-0.01-0.103-0.021-0.155-0.029c-0.233-0.046-0.476-0.086-0.737-0.113    c-0.021-0.002-0.043-0.002-0.064-0.003c-0.247-0.022-0.512-0.033-0.785-0.036c-0.039-0.002-0.072-0.006-0.111-0.006    c-0.024,0-0.054,0.004-0.079,0.004c-0.289,0.002-0.591,0.014-0.91,0.039c-0.063,0.007-0.129,0.015-0.193,0.02    c-0.293,0.029-0.6,0.066-0.92,0.117c-0.06,0.009-0.116,0.016-0.178,0.026c-0.358,0.06-0.736,0.137-1.127,0.226    c-0.091,0.021-0.184,0.044-0.277,0.065c-0.411,0.1-0.834,0.21-1.282,0.344c-0.307,0.092-0.614,0.167-0.918,0.232    c-0.104,0.022-0.205,0.037-0.309,0.058c-0.2,0.038-0.401,0.074-0.598,0.103c-0.118,0.016-0.234,0.029-0.352,0.042    c-0.181,0.021-0.361,0.039-0.539,0.051c-0.118,0.01-0.235,0.018-0.351,0.022c-0.176,0.011-0.349,0.015-0.521,0.017    c-0.125,0.002-0.25,0.005-0.373,0.004c-0.056-0.001-0.112-0.002-0.167-0.003c-0.194-0.005-0.385-0.011-0.571-0.022    c-0.029-0.002-0.059-0.003-0.088-0.004c-0.213-0.015-0.421-0.033-0.623-0.054c-0.045-0.004-0.086-0.009-0.129-0.013    c-0.165-0.02-0.325-0.039-0.48-0.061c-0.041-0.006-0.082-0.012-0.121-0.018c-0.184-0.027-0.363-0.056-0.532-0.087    c-0.019-0.002-0.035-0.007-0.053-0.01c-0.151-0.028-0.296-0.057-0.434-0.085c-0.037-0.009-0.075-0.017-0.11-0.022    c-0.137-0.031-0.269-0.062-0.391-0.091c-0.008-0.002-0.017-0.006-0.025-0.007c-0.131-0.032-0.251-0.064-0.361-0.094    c-0.027-0.008-0.05-0.015-0.075-0.021c-0.085-0.022-0.164-0.047-0.235-0.067c-0.018-0.005-0.037-0.01-0.054-0.016    c-0.08-0.024-0.15-0.047-0.208-0.066c-0.013-0.004-0.022-0.006-0.035-0.01c-0.042-0.015-0.078-0.026-0.104-0.036    c-0.01-0.004-0.023-0.008-0.031-0.011c-0.015-0.006-0.033-0.012-0.033-0.012s0.002,0.014,0.007,0.037    c0.003,0.01,0.004,0.021,0.007,0.035c0.005,0.021,0.009,0.045,0.016,0.075c0.005,0.026,0.011,0.053,0.018,0.086    c0.006,0.027,0.012,0.057,0.02,0.09c0.009,0.043,0.019,0.085,0.03,0.135c0.007,0.029,0.015,0.062,0.022,0.094    c0.028,0.121,0.062,0.256,0.101,0.411c0.006,0.021,0.01,0.04,0.017,0.062c0.021,0.081,0.043,0.167,0.067,0.256    c0.011,0.038,0.021,0.075,0.031,0.115c0.026,0.094,0.053,0.191,0.082,0.294c0.011,0.035,0.021,0.071,0.032,0.109    c0.033,0.113,0.066,0.226,0.104,0.345c0.002,0.01,0.005,0.019,0.008,0.028c0.125,0.406,0.274,0.855,0.448,1.333    c0.009,0.026,0.019,0.051,0.029,0.077c0.054,0.148,0.111,0.299,0.171,0.452c0.012,0.03,0.023,0.06,0.035,0.09    c0.264,0.672,0.577,1.384,0.943,2.102c0.01,0.02,0.02,0.038,0.029,0.058c0.086,0.167,0.175,0.335,0.268,0.501    c0.017,0.032,0.035,0.062,0.052,0.094c0.095,0.171,0.192,0.34,0.293,0.51c0.001,0.002,0.003,0.004,0.004,0.006    c0.322,0.539,0.677,1.068,1.065,1.577c0.019,0.026,0.037,0.05,0.056,0.074c0.116,0.148,0.235,0.296,0.356,0.441    c0.033,0.038,0.065,0.076,0.098,0.114c0.123,0.144,0.249,0.286,0.378,0.424c0.021,0.022,0.043,0.044,0.065,0.066    c0.414,0.438,0.862,0.843,1.342,1.208C19.757,63.325,19.801,63.362,19.847,63.395z"></path><path fill="currentColor" d="M44.517,58.801c-1.184,0.039-2.608,1.454-2.432,2.961c0.218,1.879-0.135,3.254-0.709,3.841    c1.476,0.14,2.29-1.334,2.298-1.346c0.372-0.77,1.142-1.258,1.852-0.771c0.472,0.322,1.608,1.158,0.375,2.616    c-0.189,0.225-2.681,3.171-7.739,2.843c-4.222-0.275-4.426-2.037-4.78-2.487c-0.783,0.899-1.802,1.273-3.121,1.751    c-1.667,0.604-3.445,0.661-4.987,0.661c-1.247,0-3.464-0.571-4.411-1.307c-4.492,5.143,0.263,15.409,2.125,18.589    c4.623,7.889,10.197,9.011,13.23,7.403c1.749-0.926,2.354-0.217,3.694,0.092c12.241,2.814,17.499-12.395,18.147-20.596    C58.369,69.088,56.775,57.188,44.517,58.801z"></path></g><g><path fill="none" d="M72.604,15.464c0.016-0.595,0.031-1,0.053-1.588c-1.078,0.129-2.861,0.302-3.572,0.302    c-0.582,0-1.896-0.119-2.945-0.231c0.17,4.755,0.197,7.595-0.061,12.365c-0.021,0.385-0.041,1.396-0.062,1.789    c2.6,0,4.162,0,6.764,0c-0.125-1.865-0.182-4.36-0.211-6.222C72.521,19.117,72.537,18.224,72.604,15.464z"></path><path fill="currentColor" d="M65.514,13.876c0.188,0.022,0.404,0.046,0.625,0.071c-0.002-0.024-0.002-0.044-0.004-0.069L65.514,13.876z    "></path><g><path fill="none" d="M65.514,13.876c0.188,0.022,0.404,0.046,0.625,0.071c-0.002-0.024-0.002-0.044-0.004-0.069L65.514,13.876z"></path><path fill="none" d="M62.062,72.267c-0.053,0.647-0.127,1.331-0.227,2.043h18.533V52.102H58.518     c-0.189-0.251-0.059,5.094-0.096,7.74C61.732,63.824,62.279,69.507,62.062,72.267z"></path><path fill="none" d="M72.604,15.464c0.016-0.595,0.031-1,0.053-1.588c-1.078,0.129-2.861,0.302-3.572,0.302     c-0.582,0-1.896-0.119-2.945-0.231c0.17,4.755,0.197,7.595-0.061,12.365c-0.021,0.385-0.041,1.396-0.062,1.789     c2.6,0,4.162,0,6.764,0c-0.125-1.865-0.182-4.36-0.211-6.222C72.521,19.117,72.537,18.224,72.604,15.464z"></path><path fill="currentColor" d="M76.426,35.443c-0.479-0.321-0.713-1.357-0.865-1.956c-0.324-1.282-0.479-2.61-0.607-3.926     c-0.322-3.27-0.391-6.566-0.408-9.85c-0.01-2.436,0.02-3.004,0.09-5.438c0.008-0.206,0.014-0.416,0.023-0.624h-0.002     c0.014-0.042,0.041-0.116,0.092-0.22c0.184-0.371,0.365-0.751,0.506-1.145c0.355-0.99,1.076-1.912,0.734-2.922     c-0.143-0.422-1.143-3.048-1.662-3.445C73.998,5.666,70.828,4.998,69.1,5c-1.732-0.002-4.305,0.666-4.633,0.918     c-0.518,0.396-1.518,3.022-1.66,3.445c-0.346,1.011,0.375,1.932,0.734,2.922c0.139,0.394,0.32,0.773,0.506,1.145     c0.053,0.104,0.078,0.179,0.092,0.22c0.004,0.11,0.008,0.22,0.012,0.335c0.027,0.883,0.049,1.767,0.066,2.651     c0.055,3.042,0.055,4.218-0.039,7.26c-0.092,3.017-0.207,6.098-0.822,9.063c-0.16,0.765-0.336,1.765-0.861,2.369     c-0.344,0.393-1.104,0.787-1.578,1.174c-0.928,0.752-1.742,1.638-2.469,2.58c-1.449,1.867-2.441,2.801-2.654,6.41v12.009     c1.027,0.664,1.896,1.46,2.629,2.341c0.037-2.646-0.094-7.991,0.096-7.74h21.852V74.31H61.836     c-0.639,4.578-2.295,10.295-5.174,14.934c0.02,0.06,0.041,0.12,0.068,0.179c0.32,0.718,0.908,1.991,1.471,2.546     c0.594,0.578,1.256,0.787,2.02,1.052c1.729,0.6,3.488,0.956,5.311,1.119c4.312,0.383,9.344,0.192,13.445-1.259     c0.732-0.256,1.188-0.486,1.752-1.045c0.598-0.585,1.16-1.386,1.48-2.145C82.748,88.394,83,87.145,83,87.002V44.891     C82.521,39.786,79.641,37.487,76.426,35.443z M66.016,28.101c0.021-0.393,0.041-1.403,0.062-1.789     c0.258-4.771,0.23-7.61,0.061-12.365c-0.221-0.024-0.438-0.048-0.625-0.071l0.621,0.002c0.002,0.024,0.002,0.044,0.004,0.069     c1.049,0.112,2.363,0.231,2.945,0.231c0.711,0,2.494-0.173,3.572-0.302c-0.021,0.588-0.037,0.993-0.053,1.588     c-0.066,2.76-0.082,3.653-0.035,6.415c0.029,1.862,0.086,4.357,0.211,6.222C70.178,28.101,68.615,28.101,66.016,28.101z"></path></g><polygon fill="currentColor" points="72.656,13.876 72.656,13.876 72.656,13.876   "></polygon></g></g></svg></g><line x1="41" y1="1" x2="41" y2="28" stroke="#014d5a" stroke-linecap="round"></line><path fill="#014d5a" fill-rule="nonzero" d="M0.29 18.74L0.29 18.74Q0.65 17.95 1.15 16.70Q1.66 15.46 2.21 14.00Q2.76 12.55 3.34 11.03Q3.91 9.50 4.42 8.14Q4.92 6.77 5.29 5.69Q5.66 4.61 5.83 4.03L5.83 4.03Q4.32 4.66 3.24 5.93Q2.16 7.20 1.61 9.12L1.61 9.12Q1.06 8.93 0.60 8.44Q0.14 7.94 0 7.20L0 7.20Q0.24 6.10 0.90 5.18Q1.56 4.27 2.57 3.62Q3.58 2.98 4.90 2.63Q6.22 2.28 7.73 2.28L7.73 2.28Q9.65 2.28 11.26 2.84Q12.86 3.41 14.02 4.42Q15.17 5.42 15.82 6.84Q16.46 8.26 16.46 9.98L16.46 9.98Q16.46 12.34 15.60 14.47Q14.74 16.61 13.26 18.24Q11.78 19.87 9.84 20.84Q7.90 21.82 5.76 21.82L5.76 21.82Q3.79 21.82 2.39 21.04Q0.98 20.26 0.29 18.74ZM8.76 3.48L8.76 3.48Q7.56 3.48 6.48 3.82L6.48 3.82Q7.54 4.20 8.23 4.62Q8.93 5.04 9.19 5.28L9.19 5.28Q9 5.54 8.63 6.22Q8.26 6.89 7.76 7.85Q7.27 8.81 6.72 9.95Q6.17 11.09 5.64 12.29L5.64 12.29Q4.27 15.34 3.66 17.09Q3.05 18.84 3.05 19.51L3.05 19.51Q3.38 19.63 3.86 19.68Q4.34 19.73 4.90 19.73L4.90 19.73Q6.84 19.73 8.58 18.83Q10.32 17.93 11.63 16.42Q12.94 14.90 13.69 12.90Q14.45 10.90 14.45 8.69L14.45 8.69Q14.45 6.22 12.91 4.85Q11.38 3.48 8.76 3.48ZM16.49 19.51L16.49 19.51Q16.61 18.82 16.91 17.68Q17.21 16.54 17.62 15.25Q18.02 13.97 18.48 12.67Q18.94 11.38 19.37 10.34L19.37 10.34Q19.68 9.60 19.92 9.18Q20.16 8.76 20.45 8.47L20.45 8.47Q20.78 8.52 21.14 8.64Q21.50 8.76 21.84 8.93Q22.18 9.10 22.44 9.28Q22.70 9.46 22.85 9.62L22.85 9.62Q22.20 10.39 21.71 11.38Q21.22 12.36 20.71 13.90L20.71 13.90Q22.01 12.74 23.00 11.69Q24 10.63 24.86 9.34L24.86 9.34Q25.01 9.22 25.37 9.22L25.37 9.22Q25.70 9.22 26.02 9.32Q26.33 9.43 26.45 9.62L26.45 9.62Q26.02 10.78 26.02 11.90L26.02 11.90Q26.02 12.96 26.33 13.49L26.33 13.49Q26.30 13.63 26.00 14.04Q25.70 14.45 25.34 14.81L25.34 14.81Q24.70 14.47 24.19 13.88Q23.69 13.30 23.45 12.60L23.45 12.60Q22.32 13.39 21.53 14.15Q20.74 14.90 20.17 15.83Q19.61 16.75 19.21 17.95Q18.82 19.15 18.46 20.81L18.46 20.81Q18.24 20.78 17.94 20.65Q17.64 20.52 17.34 20.33Q17.04 20.14 16.80 19.92Q16.56 19.70 16.49 19.51ZM35.02 10.30L35.02 10.30Q35.26 10.30 35.58 10.38Q35.90 10.46 36.17 10.60Q36.43 10.73 36.61 10.87Q36.79 11.02 36.79 11.14L36.79 11.14Q36.31 12.14 35.90 13.16Q35.50 14.18 35.21 15.12Q34.92 16.06 34.76 16.87Q34.61 17.69 34.61 18.29L34.61 18.29Q34.61 18.96 34.75 19.40Q34.90 19.85 35.23 20.04L35.23 20.04Q34.94 20.23 34.49 20.35Q34.03 20.47 33.67 20.47L33.67 20.47Q32.38 20.47 32.38 18.70L32.38 18.70Q32.38 17.33 33.29 14.95L33.29 14.95Q32.81 16.06 32.18 17.03Q31.56 18 30.91 18.74Q30.26 19.49 29.60 19.96Q28.94 20.42 28.39 20.52L28.39 20.52Q27.50 20.47 26.95 19.67Q26.40 18.86 26.40 17.62L26.40 17.62Q26.40 16.27 26.98 14.78Q27.55 13.30 28.45 12.02Q29.35 10.75 30.41 9.90Q31.46 9.05 32.45 9L32.45 9Q32.69 9.07 32.99 9.29Q33.29 9.50 33.56 9.79Q33.84 10.08 34.03 10.38Q34.22 10.68 34.25 10.90L34.25 10.90Q33.29 11.04 32.27 11.83Q31.25 12.62 30.42 13.74Q29.59 14.86 29.06 16.13Q28.54 17.40 28.54 18.50L28.54 18.50Q28.54 18.96 28.87 19.08L28.87 19.08Q29.57 18.94 30.48 17.89Q31.39 16.85 32.69 14.66L32.69 14.66Q32.93 14.23 33.23 13.70Q33.53 13.18 33.84 12.60Q34.15 12.02 34.45 11.44Q34.75 10.85 35.02 10.30ZM33.02 27.14L33.02 27.14Q33.02 27 33.12 26.88Q33.22 26.76 33.34 26.64L33.34 26.64Q33.62 26.90 33.83 27.05Q34.03 27.19 34.21 27.29Q34.39 27.38 34.58 27.41Q34.78 27.43 35.04 27.43L35.04 27.43Q36.29 27.43 37.42 26.77Q38.54 26.11 39.54 24.86Q40.54 23.62 41.35 21.82Q42.17 20.02 42.79 17.74L42.79 17.74Q42.50 18.02 42.08 18.37Q41.66 18.72 41.21 19.03Q40.75 19.34 40.31 19.61Q39.86 19.87 39.55 19.99L39.55 19.99Q39.14 19.92 38.80 19.64Q38.45 19.37 38.18 18.96Q37.92 18.55 37.78 18.04Q37.63 17.52 37.63 16.94L37.63 16.94Q37.63 16.01 37.98 15.02Q38.33 14.04 38.90 13.09Q39.48 12.14 40.26 11.30Q41.04 10.46 41.92 9.84Q42.79 9.22 43.69 8.84Q44.59 8.47 45.46 8.47L45.46 8.47Q46.30 8.47 46.72 8.82Q47.14 9.17 47.33 10.01L47.33 10.01Q47.06 9.86 46.66 9.86L46.66 9.86Q46.08 9.86 45.32 10.32Q44.57 10.78 43.79 11.51Q43.01 12.24 42.24 13.19Q41.47 14.14 40.88 15.12Q40.30 16.10 39.92 17.04Q39.55 17.98 39.55 18.72L39.55 18.72Q39.55 18.89 39.58 18.92Q39.60 18.96 39.65 18.96L39.65 18.96Q39.86 18.96 40.24 18.72Q40.61 18.48 41.08 18.11Q41.54 17.74 42.05 17.24Q42.55 16.75 43.01 16.25L43.01 16.25Q44.04 15.10 44.89 13.67Q45.74 12.24 46.25 10.90L46.25 10.90Q46.90 10.94 47.40 11.11Q47.90 11.28 48.10 11.47L48.10 11.47Q47.28 13.34 46.79 14.62Q46.30 15.89 45.94 16.87L45.94 16.87Q45.29 18.60 44.72 20.03Q44.16 21.46 43.57 22.67Q42.98 23.88 42.30 24.92Q41.62 25.97 40.75 26.93L40.75 26.93Q40.34 27.38 39.83 27.73Q39.31 28.08 38.77 28.32Q38.23 28.56 37.72 28.68Q37.20 28.80 36.77 28.80L36.77 28.80Q36.19 28.80 35.59 28.67Q34.99 28.54 34.48 28.31Q33.96 28.08 33.58 27.78Q33.19 27.48 33.02 27.14ZM50.54 21.82L50.54 21.82Q49.18 21.41 48.70 21.04Q48.22 20.66 48.22 20.02L48.22 20.02Q48.22 19.30 48.55 17.99Q48.89 16.68 49.43 15.07Q49.97 13.46 50.66 11.71Q51.36 9.96 52.08 8.35Q52.80 6.74 53.48 5.41Q54.17 4.08 54.70 3.34L54.70 3.34L54.53 2.33Q54.86 2.33 55.46 2.50Q56.06 2.66 56.68 2.90Q57.29 3.14 57.76 3.40Q58.22 3.65 58.27 3.82L58.27 3.82Q58.15 4.39 58.08 5.56Q58.01 6.72 58.01 8.04L58.01 8.04Q58.01 10.66 58.21 13.16Q58.42 15.67 59.16 18.26L59.16 18.26Q59.54 16.34 59.99 14.44Q60.43 12.53 60.91 10.79Q61.39 9.05 61.87 7.56Q62.35 6.07 62.80 4.96Q63.24 3.84 63.62 3.20Q64.01 2.57 64.32 2.52L64.32 2.52Q64.58 2.57 64.90 2.72Q65.21 2.88 65.50 3.10Q65.78 3.31 66.02 3.58Q66.26 3.84 66.41 4.10L66.41 4.10Q65.64 4.42 64.88 5.57Q64.13 6.72 63.44 8.36Q62.76 10.01 62.17 11.93Q61.58 13.85 61.14 15.71Q60.70 17.57 60.44 19.15Q60.19 20.74 60.17 21.70L60.17 21.70Q60.17 21.74 60.19 21.77L60.19 21.77Q60.12 21.79 60.04 21.79Q59.95 21.79 59.88 21.79L59.88 21.79Q58.78 21.79 57.92 21.52Q57.07 21.24 56.81 20.74L56.81 20.74Q56.30 18.72 55.97 16.85Q55.63 14.98 55.40 13.10Q55.18 11.23 55.04 9.32Q54.91 7.42 54.84 5.33L54.84 5.33Q54.38 6.05 53.88 7.21Q53.38 8.38 52.90 9.77Q52.42 11.16 51.97 12.70Q51.53 14.23 51.19 15.70Q50.86 17.16 50.66 18.47Q50.47 19.78 50.47 20.74L50.47 20.74Q50.47 21.24 50.48 21.46Q50.50 21.67 50.54 21.82ZM68.26 7.82L68.26 7.82Q68.11 7.70 67.99 7.44Q67.87 7.18 67.87 6.91L67.87 6.91Q68.16 6.07 68.41 4.98Q68.66 3.89 68.66 2.54L68.66 2.54Q68.66 1.94 68.60 1.32Q68.54 0.70 68.38 0L68.38 0Q69.53 0.07 70.48 0.49Q71.42 0.91 71.74 1.51L71.74 1.51Q71.33 3.70 70.49 5.30Q69.65 6.91 68.26 7.82ZM86.66 6.77L86.66 6.77Q86.66 7.92 86.15 8.94Q85.63 9.96 84.72 10.76Q83.81 11.57 82.58 12.12Q81.36 12.67 79.92 12.86L79.92 12.86Q80.28 13.94 80.80 15.08Q81.31 16.22 81.91 17.28Q82.51 18.34 83.16 19.22Q83.81 20.11 84.43 20.69L84.43 20.69Q84.31 20.93 84.08 21.17Q83.86 21.41 83.56 21.61Q83.26 21.82 82.93 21.95Q82.61 22.08 82.32 22.08L82.32 22.08Q81.79 22.08 81.31 21.58Q80.83 21.07 80.34 19.98Q79.85 18.89 79.31 17.15Q78.77 15.41 78.12 12.96L78.12 12.96Q77.86 12.96 77.59 12.96Q77.33 12.96 77.18 12.91L77.18 12.91Q77.02 12.82 76.82 12.58L76.82 12.58Q76.18 13.97 75.67 15.19Q75.17 16.42 74.77 17.56Q74.38 18.70 74.08 19.76Q73.78 20.83 73.56 21.94L73.56 21.94Q72.74 21.74 72.14 21.24Q71.54 20.74 71.02 19.82L71.02 19.82Q71.11 19.61 71.22 19.40Q71.33 19.20 71.50 18.83Q71.66 18.46 71.92 17.88Q72.17 17.30 72.59 16.34Q73.01 15.38 73.60 13.99Q74.18 12.60 75.02 10.61L75.02 10.61Q75.41 9.72 75.68 9.05Q75.96 8.38 76.18 7.76Q76.39 7.15 76.57 6.54Q76.75 5.93 76.94 5.14L76.94 5.14Q75.84 5.52 74.89 5.99Q73.94 6.46 73.32 6.98L73.32 6.98Q73.10 6.84 72.88 6.55Q72.65 6.26 72.46 5.92Q72.26 5.57 72.12 5.21Q71.98 4.85 71.95 4.56L71.95 4.56Q72.67 4.08 73.72 3.67Q74.76 3.26 75.94 2.96Q77.11 2.66 78.34 2.50Q79.56 2.33 80.62 2.33L80.62 2.33Q83.50 2.33 85.08 3.52Q86.66 4.70 86.66 6.77ZM80.52 4.30L80.81 4.75Q80.64 4.97 80.28 5.62Q79.92 6.26 79.45 7.16Q78.98 8.06 78.47 9.12Q77.95 10.18 77.47 11.21L77.47 11.21Q79.27 11.21 80.78 10.87Q82.30 10.54 83.40 9.92Q84.50 9.31 85.12 8.48Q85.73 7.66 85.73 6.65L85.73 6.65Q85.73 5.45 84.86 4.81Q84 4.18 82.20 4.18L82.20 4.18Q81.79 4.18 81.38 4.21Q80.98 4.25 80.52 4.30L80.52 4.30ZM94.42 10.06L94.42 10.06Q94.32 11.54 93.89 12.61Q93.46 13.68 92.65 14.48Q91.85 15.29 90.70 15.94Q89.54 16.58 88.01 17.18L88.01 17.18Q88.01 17.33 88.00 17.48Q87.98 17.64 87.98 17.81L87.98 17.81Q87.98 18.12 88.03 18.46Q88.08 18.79 88.20 19.08Q88.32 19.37 88.54 19.55Q88.75 19.73 89.09 19.73L89.09 19.73Q89.74 19.73 90.36 19.44Q90.98 19.15 91.55 18.73Q92.11 18.31 92.60 17.82Q93.10 17.33 93.48 16.92L93.48 16.92Q93.72 17.14 93.89 17.33L93.89 17.33Q92.81 18.77 91.52 19.72Q90.24 20.66 89.09 20.93L89.09 20.93Q87.43 20.74 86.51 19.72Q85.58 18.70 85.58 17.26L85.58 17.26Q85.58 16.27 85.86 15.25Q86.14 14.23 86.63 13.28Q87.12 12.34 87.78 11.50Q88.44 10.66 89.20 10.03Q89.95 9.41 90.76 9.05Q91.56 8.69 92.35 8.69L92.35 8.69Q93.46 8.83 94.42 10.06ZM92.76 10.85L92.76 10.85Q92.11 10.94 91.42 11.38Q90.72 11.81 90.11 12.53Q89.50 13.25 88.99 14.21Q88.49 15.17 88.20 16.27L88.20 16.27Q90.12 15.31 91.39 13.91Q92.66 12.50 92.76 10.85ZM95.66 15.77L95.66 15.77Q95.66 14.40 96.23 13.12Q96.79 11.83 97.72 10.84Q98.64 9.84 99.83 9.23Q101.02 8.62 102.29 8.62L102.29 8.62Q103.54 8.62 104.21 9.24Q104.88 9.86 104.88 11.02L104.88 11.02Q104.88 11.57 104.72 12.08Q104.57 12.60 104.32 13.01Q104.06 13.42 103.73 13.67Q103.39 13.92 103.06 13.92L103.06 13.92Q102.77 13.92 102.47 13.74Q102.17 13.56 101.98 13.27L101.98 13.27Q103.58 11.81 103.58 10.61L103.58 10.61Q103.58 9.91 103.03 9.91L103.03 9.91Q102.55 9.91 101.83 10.37Q101.11 10.82 100.44 11.57L100.44 11.57Q99.41 12.72 98.87 14.12Q98.33 15.53 98.33 17.06L98.33 17.06Q98.33 19.01 99.19 19.39L99.19 19.39Q99.55 19.34 100.03 19.18Q100.51 19.01 101.06 18.73Q101.62 18.46 102.20 18.10Q102.79 17.74 103.34 17.33L103.34 17.33Q103.44 17.40 103.51 17.54Q103.58 17.69 103.58 17.81L103.58 17.81Q103.18 18.31 102.65 18.79Q102.12 19.27 101.54 19.67Q100.97 20.06 100.43 20.34Q99.89 20.62 99.48 20.69L99.48 20.69Q98.69 20.62 97.99 20.20Q97.30 19.78 96.78 19.10Q96.26 18.43 95.96 17.57Q95.66 16.70 95.66 15.77ZM114.19 10.06L114.19 10.06Q114.10 11.54 113.66 12.61Q113.23 13.68 112.43 14.48Q111.62 15.29 110.47 15.94Q109.32 16.58 107.78 17.18L107.78 17.18Q107.78 17.33 107.77 17.48Q107.76 17.64 107.76 17.81L107.76 17.81Q107.76 18.12 107.81 18.46Q107.86 18.79 107.98 19.08Q108.10 19.37 108.31 19.55Q108.53 19.73 108.86 19.73L108.86 19.73Q109.51 19.73 110.14 19.44Q110.76 19.15 111.32 18.73Q111.89 18.31 112.38 17.82Q112.87 17.33 113.26 16.92L113.26 16.92Q113.50 17.14 113.66 17.33L113.66 17.33Q112.58 18.77 111.30 19.72Q110.02 20.66 108.86 20.93L108.86 20.93Q107.21 20.74 106.28 19.72Q105.36 18.70 105.36 17.26L105.36 17.26Q105.36 16.27 105.64 15.25Q105.91 14.23 106.40 13.28Q106.90 12.34 107.56 11.50Q108.22 10.66 108.97 10.03Q109.73 9.41 110.53 9.05Q111.34 8.69 112.13 8.69L112.13 8.69Q113.23 8.83 114.19 10.06ZM112.54 10.85L112.54 10.85Q111.89 10.94 111.19 11.38Q110.50 11.81 109.88 12.53Q109.27 13.25 108.77 14.21Q108.26 15.17 107.98 16.27L107.98 16.27Q109.90 15.31 111.17 13.91Q112.44 12.50 112.54 10.85ZM115.32 18.38L115.32 18.38Q115.32 18.17 115.36 17.84Q115.39 17.52 115.49 16.98Q115.58 16.44 115.74 15.67Q115.90 14.90 116.14 13.82L116.14 13.82Q116.18 13.58 116.35 13.06Q116.52 12.53 116.80 11.94Q117.07 11.35 117.47 10.80Q117.86 10.25 118.42 9.98L118.42 9.98Q118.82 10.08 119.50 10.48Q120.17 10.87 120.65 11.57L120.65 11.57Q120.10 12.19 119.72 12.82Q119.35 13.44 119.05 14.11Q118.75 14.78 118.50 15.50Q118.25 16.22 117.94 17.02L117.94 17.02Q117.67 17.69 117.46 18.40Q117.24 19.10 117.22 19.63L117.22 19.63Q117.22 20.06 117.20 20.24Q117.19 20.42 117.07 20.42L117.07 20.42Q116.98 20.42 116.69 20.30Q116.40 20.18 116.10 19.93Q115.80 19.68 115.56 19.30Q115.32 18.91 115.32 18.38ZM119.90 7.97L119.90 7.97Q119.90 7.82 119.98 7.54L119.98 7.54Q119.86 7.42 119.77 7.18Q119.69 6.94 119.69 6.74L119.69 6.74Q119.69 6.53 119.75 6.16Q119.81 5.78 119.90 5.35Q120 4.92 120.14 4.45Q120.29 3.98 120.43 3.60L120.43 3.60Q120.72 3.60 121.14 3.76Q121.56 3.91 121.99 4.16Q122.42 4.42 122.78 4.72Q123.14 5.02 123.34 5.28L123.34 5.28Q123.07 5.54 122.64 6.01Q122.21 6.48 121.80 7.00Q121.39 7.51 121.06 7.97Q120.72 8.42 120.62 8.62L120.62 8.62Q120.34 8.57 120.12 8.36Q119.90 8.16 119.90 7.97ZM122.28 11.50L122.28 11.50Q122.28 11.06 122.34 10.68Q122.40 10.30 122.59 10.02Q122.78 9.74 123.12 9.59Q123.46 9.43 124.01 9.43L124.01 9.43Q124.34 9.43 124.76 9.50Q125.18 9.58 125.38 9.77L125.38 9.77Q125.28 10.18 125.22 10.49Q125.16 10.80 125.12 11.17Q125.09 11.54 125.06 12.06Q125.04 12.58 125.02 13.39L125.02 13.39Q124.97 15.02 124.86 16.31Q124.75 17.59 124.37 18.86L124.37 18.86Q124.37 18.96 124.44 18.96L124.44 18.96Q124.80 18.70 125.26 18.19Q125.71 17.69 126.22 17.05Q126.72 16.42 127.22 15.70Q127.73 14.98 128.16 14.28L128.16 14.28Q128.74 13.27 129.43 11.76Q130.13 10.25 130.58 8.52L130.58 8.52Q130.73 8.52 130.96 8.58Q131.18 8.64 131.41 8.72Q131.64 8.81 131.82 8.90Q132 9 132.07 9.07L132.07 9.07Q132.02 10.10 131.58 11.18Q131.14 12.26 130.51 13.27Q129.89 14.28 129.19 15.17Q128.50 16.06 127.92 16.70L127.92 16.70Q126.77 18.05 125.60 19.10Q124.44 20.16 122.83 21.14L122.83 21.14Q122.21 20.90 121.85 20.51Q121.49 20.11 121.49 19.68L121.49 19.68Q121.49 19.39 121.62 19.02Q121.75 18.65 121.92 18.06Q122.09 17.47 122.22 16.58Q122.35 15.70 122.35 14.33L122.35 14.33Q122.35 13.54 122.32 12.73Q122.28 11.93 122.28 11.50ZM140.30 10.06L140.30 10.06Q140.21 11.54 139.78 12.61Q139.34 13.68 138.54 14.48Q137.74 15.29 136.58 15.94Q135.43 16.58 133.90 17.18L133.90 17.18Q133.90 17.33 133.88 17.48Q133.87 17.64 133.87 17.81L133.87 17.81Q133.87 18.12 133.92 18.46Q133.97 18.79 134.09 19.08Q134.21 19.37 134.42 19.55Q134.64 19.73 134.98 19.73L134.98 19.73Q135.62 19.73 136.25 19.44Q136.87 19.15 137.44 18.73Q138 18.31 138.49 17.82Q138.98 17.33 139.37 16.92L139.37 16.92Q139.61 17.14 139.78 17.33L139.78 17.33Q138.70 18.77 137.41 19.72Q136.13 20.66 134.98 20.93L134.98 20.93Q133.32 20.74 132.40 19.72Q131.47 18.70 131.47 17.26L131.47 17.26Q131.47 16.27 131.75 15.25Q132.02 14.23 132.52 13.28Q133.01 12.34 133.67 11.50Q134.33 10.66 135.08 10.03Q135.84 9.41 136.64 9.05Q137.45 8.69 138.24 8.69L138.24 8.69Q139.34 8.83 140.30 10.06ZM138.65 10.85L138.65 10.85Q138 10.94 137.30 11.38Q136.61 11.81 136.00 12.53Q135.38 13.25 134.88 14.21Q134.38 15.17 134.09 16.27L134.09 16.27Q136.01 15.31 137.28 13.91Q138.55 12.50 138.65 10.85Z" transform="translate(51, 4.504)"></path></svg>